<svg xmlns="http://www.w3.org/2000/svg" viewBox="0 0 18 19">
    <circle cy="9.5" cx="9" r="9" opacity=".3"/>
    <circle cy="9" cx="9" r="9" fill="#96bc4b"/>
    <path opacity=".2" transform="translate(0 .5)"
          d="M9 2.93a.5.5 0 0 0-.27.08.46.46 0 0 0-.17.22L7.24 6.67l-3.68.19A.52.52 0 0 0 3.3 7a.53.53 0 0 0-.16.23.45.45 0 0 0 0 .28.44.44 0 0 0 .15.23L6.15 10l-1 3.56a.45.45 0 0 0 0 .28.46.46 0 0 0 .17.22.41.41 0 0 0 .26.09.43.43 0 0 0 .27-.08l3.09-2 3.09 2a.46.46 0 0 0 .53 0 .46.46 0 0 0 .17-.22.53.53 0 0 0 0-.28l-1-3.56 2.86-2.32a.44.44 0 0 0 .15-.23.45.45 0 0 0 0-.28A.53.53 0 0 0 14.7 7a.52.52 0 0 0-.26-.1l-3.68-.2L9.44 3.23A.46.46 0 0 0 9.27 3 .5.5 0 0 0 9 2.93Z"/>
    <path fill="#fff"
          d="M9 2.93a.5.5 0 0 0-.27.08.46.46 0 0 0-.17.22L7.24 6.67l-3.68.19A.52.52 0 0 0 3.3 7a.53.53 0 0 0-.16.23.45.45 0 0 0 0 .28.44.44 0 0 0 .15.23L6.15 10l-1 3.56a.45.45 0 0 0 0 .28.46.46 0 0 0 .17.22.41.41 0 0 0 .26.09.43.43 0 0 0 .27-.08l3.09-2 3.09 2a.46.46 0 0 0 .53 0 .46.46 0 0 0 .17-.22.53.53 0 0 0 0-.28l-1-3.56 2.86-2.32a.44.44 0 0 0 .15-.23.45.45 0 0 0 0-.28A.53.53 0 0 0 14.7 7a.52.52 0 0 0-.26-.1l-3.68-.2L9.44 3.23A.46.46 0 0 0 9.27 3 .5.5 0 0 0 9 2.93Z"/>
</svg>
