<svg xmlns="http://www.w3.org/2000/svg" viewBox="0 0 18 19">
    <circle cx="9" cy="9.5" r="9" opacity=".3"/>
    <circle cx="9" cy="9" r="9" fill="#6b7280"/>
    <g>
        <path opacity=".3" d="M8.45 5.9C7.42 5.15 5.94 4.81 3.62 4.81H2.54v8.71h1.08a8.16 8.16 0 0 1 4.83 1.17Z"/>
        <path opacity=".3" d="M9.54 14.69a8.14 8.14 0 0 1 4.84-1.17h1.08V4.81h-1.08c-2.31 0-3.81.34-4.84 1.09Z"/>
        <path fill="#fff" d="M8.45 5.4C7.42 4.65 5.94 4.31 3.62 4.31H3V13h.62a8.09 8.09 0 0 1 4.83 1.17Z"/>
        <path fill="#fff" d="M9.54 14.19A8.14 8.14 0 0 1 14.38 13H15V4.31h-.62c-2.31 0-3.81.34-4.84 1.09Z"/>
    </g>
</svg>