<svg xmlns="http://www.w3.org/2000/svg" viewBox="0 0 18 19">
    <circle cx="9" cy="9.5" r="9" opacity=".3"/>
    <circle cx="9" cy="9" r="9" fill="#96af8b"/>
    <path opacity=".2" transform="translate(0 .5)"
          d="M3.5 7.55c0-.3.25-.55.55-.55H8.35V4.15c0-.2.11-.38.29-.46a.5.5 0 0 1 .53.07l5.05 4.46c.11.1.18.24.18.39s-.07.29-.18.39l-5.05 4.46a.5.5 0 0 1-.53.07.5.5 0 0 1-.29-.46V10.2h-4.3a.55.55 0 0 1-.55-.55v-2.1Z"/>
    <path fill="#fff"
          d="M3.5 7.55c0-.3.25-.55.55-.55H8.35V4.15c0-.2.11-.38.29-.46a.5.5 0 0 1 .53.07l5.05 4.46c.11.1.18.24.18.39s-.07.29-.18.39l-5.05 4.46a.5.5 0 0 1-.53.07.5.5 0 0 1-.29-.46V10.2h-4.3a.55.55 0 0 1-.55-.55v-2.1Z"/>
</svg>