<svg xmlns="http://www.w3.org/2000/svg" viewBox="0 0 18 19">
    <circle cx="9" cy="9.5" r="9" opacity=".3"/>
    <circle cx="9" cy="9" r="9" fill="#96af8b"/>
    <path opacity=".2" transform="translate(0 .5)"
          d="M7.1 13.2a.45.45 0 0 1-.32-.13L3 9.28a.45.45 0 0 1 0-.64l1.1-1.1a.45.45 0 0 1 .64 0l2.36 2.36 6.16-6.16a.45.45 0 0 1 .64 0l1.1 1.1a.45.45 0 0 1 0 .64l-7.58 7.59a.45.45 0 0 1-.32.13Z"/>
    <path fill="#fff"
          d="M7.1 13.2a.45.45 0 0 1-.32-.13L3 9.28a.45.45 0 0 1 0-.64l1.1-1.1a.45.45 0 0 1 .64 0l2.36 2.36 6.16-6.16a.45.45 0 0 1 .64 0l1.1 1.1a.45.45 0 0 1 0 .64l-7.58 7.59a.45.45 0 0 1-.32.13Z"/>
</svg>
