<svg xmlns="http://www.w3.org/2000/svg" viewBox="0 0 18 19">
    <circle cx="9" cy="9.5" r="9" opacity=".3"/>
    <circle cx="9" cy="9" r="9" fill="#ca3431"/>
    <path opacity=".2" transform="translate(0 .5)"
          d="M14 12a.57.57 0 0 1 .08.13.39.39 0 0 1 0 .3.5.5 0 0 1-.08.12l-1.38 1.38a.5.5 0 0 1-.12.08l-.15 0-.15 0a.57.57 0 0 1-.13-.08L9 10.87l-3.06 3.07a.57.57 0 0 1-.13.08l-.15 0-.15 0a.36.36 0 0 1-.12-.08L4 12.56a.39.39 0 0 1-.11-.27A.41.41 0 0 1 4 12L7.07 9 4 5.89a.43.43 0 0 1-.11-.28A.39.39 0 0 1 4 5.34L5.39 4a.39.39 0 0 1 .27-.11A.43.43 0 0 1 5.94 4L9 7l3.06-3a.41.41 0 0 1 .28-.11.39.39 0 0 1 .27.11L14 5.34a.36.36 0 0 1 .08.12.39.39 0 0 1 0 .3.57.57 0 0 1-.08.13L10.92 9Z"/>
    <path fill="#f1f2f2"
          d="M14 12a.57.57 0 0 1 .08.13.39.39 0 0 1 0 .3.5.5 0 0 1-.08.12l-1.38 1.38a.5.5 0 0 1-.12.08l-.15 0-.15 0a.57.57 0 0 1-.13-.08L9 10.87l-3.06 3.07a.57.57 0 0 1-.13.08l-.15 0-.15 0a.36.36 0 0 1-.12-.08L4 12.56a.39.39 0 0 1-.11-.27A.41.41 0 0 1 4 12L7.07 9 4 5.89a.43.43 0 0 1-.11-.28A.39.39 0 0 1 4 5.34L5.39 4a.39.39 0 0 1 .27-.11A.43.43 0 0 1 5.94 4L9 7l3.06-3a.41.41 0 0 1 .28-.11.39.39 0 0 1 .27.11L14 5.34a.36.36 0 0 1 .08.12.39.39 0 0 1 0 .3.57.57 0 0 1-.08.13L10.92 9Z"/>
</svg>
